<svg xmlns="http://www.w3.org/2000/svg" viewBox="0 0 186.67 102.48"><defs><style>.e41e30d8-2d90-413f-aac8-35d9b8987e07{fill:#18baa8;}.aa22f1b3-ab18-4cc6-a2ba-1c0349a513be{fill:#2a2163;}</style></defs><g id="a79e320d-cb3a-45b1-b658-6c339cf7bde7" data-name="Layer 2"><g id="a16d813b-fb7c-4dd9-8bf6-d72665bbb136" data-name="Main Content"><path class="e41e30d8-2d90-413f-aac8-35d9b8987e07" d="M45.05,39.36a1.18,1.18,0,0,0-1.19,1.18v5.35a1.19,1.19,0,0,0,1.19,1.19H71.31a1.19,1.19,0,0,1,1.19,1.19v8.32a1.19,1.19,0,0,1-1.19,1.18H45.05A1.19,1.19,0,0,0,43.86,59v5.29a1.19,1.19,0,0,0,1.19,1.19H74.63a1.19,1.19,0,0,1,1.19,1.19V75a1.19,1.19,0,0,1-1.19,1.19H32A1.19,1.19,0,0,1,30.79,75V29.85A1.19,1.19,0,0,1,32,28.66H74.63a1.19,1.19,0,0,1,1.19,1.19v8.32a1.19,1.19,0,0,1-1.19,1.19Z"/><path class="e41e30d8-2d90-413f-aac8-35d9b8987e07" d="M85.68,76.19a1.51,1.51,0,0,1-1.49-1.48V30.15a1.56,1.56,0,0,1,1.49-1.49H95.84a1.49,1.49,0,0,1,1.42,1.49V74.71a1.45,1.45,0,0,1-1.42,1.48Z"/><path class="e41e30d8-2d90-413f-aac8-35d9b8987e07" d="M155.37,50a1.19,1.19,0,0,1,1.19,1.19V74.94a1.19,1.19,0,0,1-1.19,1.19h-6.48a1.14,1.14,0,0,1-1.13-1.19V73.46a.74.74,0,0,0-1.13-.66,28.76,28.76,0,0,1-14.49,3.87c-14.86,0-26.8-10.94-26.8-24.24,0-13.55,12.18-24.24,26.8-24.24,9.38,0,17.7,4.33,22.46,11a1.18,1.18,0,0,1-.3,1.72l-7.61,4.87a1.18,1.18,0,0,1-1.6-.24,16.31,16.31,0,0,0-13-5.94c-8.38,0-15.39,5.71-15.39,12.84,0,7.36,7.31,12.83,15.39,12.83A16.47,16.47,0,0,0,144.5,60a.7.7,0,0,0-.48-1.19H130.77a1.19,1.19,0,0,1-1.19-1.19V51.18A1.19,1.19,0,0,1,130.77,50Z"/><path class="e41e30d8-2d90-413f-aac8-35d9b8987e07" d="M39.86,96.17v1.58a.21.21,0,0,1-.21.2c-1.63-.08-2.35-1-3.86-2.47a.18.18,0,0,0-.14-.06H34.23a.2.2,0,0,0-.2.2v2a.2.2,0,0,1-.2.2H32a.2.2,0,0,1-.2-.2v-7.7a.21.21,0,0,1,.2-.21h5a2.86,2.86,0,0,1,2.85,2.86,2.83,2.83,0,0,1-1.46,2.48.13.13,0,0,0,0,.2c.57.53.83.69,1.25.72A.2.2,0,0,1,39.86,96.17ZM34,91.74v1.65a.21.21,0,0,0,.2.21h2.82a1,1,0,0,0,0-2.06h-2.8A.2.2,0,0,0,34,91.74Z"/><path class="e41e30d8-2d90-413f-aac8-35d9b8987e07" d="M46.23,91.54a.2.2,0,0,0-.2.2v.91a.21.21,0,0,0,.2.21h4.48a.2.2,0,0,1,.2.2v1.42a.2.2,0,0,1-.2.2H46.23a.2.2,0,0,0-.2.2v.9a.2.2,0,0,0,.2.21h5.05a.2.2,0,0,1,.2.2v1.43a.2.2,0,0,1-.2.2H44a.2.2,0,0,1-.2-.2v-7.7a.21.21,0,0,1,.2-.21h7.28a.21.21,0,0,1,.2.21v1.42a.2.2,0,0,1-.2.2Z"/><path class="e41e30d8-2d90-413f-aac8-35d9b8987e07" d="M63.6,95.32a2.07,2.07,0,0,1-.46,1.31c-1,1.24-3.53,1.38-5.12,1.11a4.18,4.18,0,0,1-2.23-1,2.27,2.27,0,0,1-.66-1.41.21.21,0,0,1,.2-.22h1.44a.21.21,0,0,1,.19.15c.24.79,3.09,1,4.39.47a1,1,0,0,0,.38-.24.22.22,0,0,0,.05-.16c0-.1,0-.13,0-.14a.76.76,0,0,0-.33-.21c-1.17-.48-3.3-.23-4.83-.87a2.14,2.14,0,0,1-1.47-2,2,2,0,0,1,.47-1.32c.82-1,2.47-1.22,3.76-1.22a7.2,7.2,0,0,1,2.36.39A2.46,2.46,0,0,1,63.59,92a.2.2,0,0,1-.2.23H61.94a.2.2,0,0,1-.18-.13.44.44,0,0,0-.09-.13,4.16,4.16,0,0,0-2.32-.59,3.6,3.6,0,0,0-2.36.54.23.23,0,0,0-.05.17c0,.1,0,.12,0,.14.29.36,1.68.5,2.45.56a9.53,9.53,0,0,1,2.7.51A2.16,2.16,0,0,1,63.6,95.32Z"/><path class="e41e30d8-2d90-413f-aac8-35d9b8987e07" d="M76.19,89.91v1.66a.2.2,0,0,1-.21.2H73a.2.2,0,0,0-.21.2v5.65a.2.2,0,0,1-.2.2H70.81a.21.21,0,0,1-.21-.2V92a.2.2,0,0,0-.2-.2h-3a.2.2,0,0,1-.2-.2V89.91a.21.21,0,0,1,.2-.21H76A.21.21,0,0,1,76.19,89.91Z"/><path class="e41e30d8-2d90-413f-aac8-35d9b8987e07" d="M79.6,93.77a4.59,4.59,0,1,1,4.56,4.13A4.37,4.37,0,0,1,79.6,93.77Zm2,0a2.66,2.66,0,1,0,2.61-2.19A2.44,2.44,0,0,0,81.55,93.77Z"/><path class="e41e30d8-2d90-413f-aac8-35d9b8987e07" d="M100.65,96.17v1.58a.21.21,0,0,1-.21.2c-1.62-.08-2.34-1-3.85-2.47a.18.18,0,0,0-.14-.06H95a.2.2,0,0,0-.2.2v2a.21.21,0,0,1-.21.2H92.8a.2.2,0,0,1-.2-.2v-7.7a.21.21,0,0,1,.2-.21h5a2.86,2.86,0,0,1,2.84,2.86,2.81,2.81,0,0,1-1.46,2.48.13.13,0,0,0,0,.2c.57.53.84.69,1.25.72A.2.2,0,0,1,100.65,96.17Zm-5.82-4.43v1.65a.21.21,0,0,0,.2.21h2.82a1,1,0,0,0,0-2.06H95A.2.2,0,0,0,94.83,91.74Z"/><path class="e41e30d8-2d90-413f-aac8-35d9b8987e07" d="M114,97.82H112a.2.2,0,0,1-.18-.12l-.53-1.09h-4.21l-.53,1.09a.2.2,0,0,1-.18.12h-1.94a.2.2,0,0,1-.18-.29L108,89.82a.19.19,0,0,1,.18-.11h2.13a.19.19,0,0,1,.18.11l3.7,7.71A.21.21,0,0,1,114,97.82Zm-5.8-3h2.09a.11.11,0,0,0,.1-.17l-1-2.18a.13.13,0,0,0-.23,0l-1,2.18A.11.11,0,0,0,108.18,94.78Z"/><path class="e41e30d8-2d90-413f-aac8-35d9b8987e07" d="M124.65,89.91v1.66a.2.2,0,0,1-.2.2h-3a.21.21,0,0,0-.21.2v5.65a.2.2,0,0,1-.2.2h-1.82a.21.21,0,0,1-.21-.2V92a.2.2,0,0,0-.2-.2h-3a.2.2,0,0,1-.2-.2V89.91a.21.21,0,0,1,.2-.21h8.55A.21.21,0,0,1,124.65,89.91Z"/><path class="e41e30d8-2d90-413f-aac8-35d9b8987e07" d="M128.77,97.82a.25.25,0,0,1-.25-.25V90a.27.27,0,0,1,.25-.26h1.74a.26.26,0,0,1,.24.26v7.6a.25.25,0,0,1-.24.25Z"/><path class="e41e30d8-2d90-413f-aac8-35d9b8987e07" d="M134.61,93.77a4.59,4.59,0,1,1,4.56,4.13A4.36,4.36,0,0,1,134.61,93.77Zm1.94,0a2.66,2.66,0,1,0,2.62-2.19A2.45,2.45,0,0,0,136.55,93.77Z"/><path class="e41e30d8-2d90-413f-aac8-35d9b8987e07" d="M154.41,89.71h1.82a.21.21,0,0,1,.2.21v7.7a.2.2,0,0,1-.21.2H154.3a.2.2,0,0,1-.16-.07l-4.09-4.9a.12.12,0,0,0-.22.08v4.69a.2.2,0,0,1-.21.2H147.8a.2.2,0,0,1-.2-.2v-7.7a.21.21,0,0,1,.2-.21h1.94a.19.19,0,0,1,.16.09L154,94.7a.13.13,0,0,0,.23-.08v-4.7A.21.21,0,0,1,154.41,89.71Z"/><polygon class="aa22f1b3-ab18-4cc6-a2ba-1c0349a513be" points="170.86 102.48 0 102.48 0 15.8 12.56 15.8 12.56 18.3 2.5 18.3 2.5 99.99 168.37 99.99 168.37 18.3 21.55 18.3 21.55 15.8 170.86 15.8 170.86 102.48"/><polygon class="aa22f1b3-ab18-4cc6-a2ba-1c0349a513be" points="186.67 86.68 174.11 86.68 174.11 84.18 184.17 84.18 184.17 2.5 18.3 2.5 18.3 84.18 165.12 84.18 165.12 86.68 15.8 86.68 15.8 0 186.67 0 186.67 86.68"/></g></g></svg>